<svg xmlns="http://www.w3.org/2000/svg" xmlns:cc="http://creativecommons.org/ns#" xmlns:dc="http://purl.org/dc/elements/1.1/" xmlns:rdf="http://www.w3.org/1999/02/22-rdf-syntax-ns#" width="319.7221015541813" height="312.77162108561214" enable-background="new 0 0 200 200" version="1.1" viewBox="0 0 46.351 45.495" xml:space="preserve"><title>Daffodil International University Monogram</title>
<g transform="translate(-77.157,-48.365)">
	<g clip-rule="evenodd" fill-rule="evenodd">
		<path d="m116.79 70.2c-2.061-7.516-0.794-12.876 1.997-16.799l-4.857-5.036h-26.398l-4.66 4.837c4.128 8.633 1.201 14.188 1.067 16.674-2.926-2.812-4.59-1.179-4.853 0-1.067 3.464-1.929 4.704-1.929 4.704 0.598 1.503 1.265 1.699 1.594 1.699 0.068 6.663 5.987 10.195 12.638 12.417 6.713 2.288 8.842 5.164 8.842 5.164s3.923-4.054 10.642-5.753c6.916-2.549 11.041-7.257 10.706-11.894 1.328 0 1.529-0.394 1.929-1.766 0 0-0.994-0.652-1.86-3.984 0-0.522-0.202-1.113-0.595-1.766-1.867-1.831-4.196 1.31-4.263 1.503z" fill="#808184"/>
		<path d="m80.813 71.641c0.067-0.132 0.932-1.507 1.064-0.328 0.134 1.176-1.995 0.259-2.195-1.243-0.066-0.914 3.528-2.746 3.925 2.615 0.265 7.316 8.38 9.474 11.901 10.979 4.192 2.286 4.591 3.2 4.591 3.2s1.793-1.96 4.656-3.007c7.116-2.483 12.369-4.9 12.301-11.367 0.269-4.443 5.321-4.642 3.193-1.047-0.597 1.047-3.125 1.31-1.197-0.719l0.665 1.243c0.133 0 0.266-0.132 0.399-0.262 0 0-0.797-1.828-0.864-1.828-0.664 0.194-1.264 1.043-1.196 1.895 0.067 1.696 3.06 4.376 2.859 5.811-1.198 7.322-11.97 10.459-11.97 10.459-4.989 1.308-8.714 4.97-8.714 4.97-2.262-3.071-10.24-5.427-10.24-5.427-9.977-4.053-10.643-9.347-10.441-11.044 0.132-1.305 2.396-3.331 2.396-3.331 0.595-0.655 0.795-2.811-0.469-3.267-0.065 0-0.996 1.437-0.996 1.437 0.068 0.063 0.268 0.192 0.332 0.261z" fill="#50b748"/>
		<path d="m84.606 73.076c0.331 5.486 5.517 7.32 10.702 9.147 3.196 1.178 4.858 3.01 4.858 3.01 2.261-1.833 3.26-2.291 5.121-2.878 5.651-2.029 11.768-4.055 10.443-12.024-2.863-11.963 1.792-16.669 1.792-16.669l-4.322-4.317h-25.336l-3.791 4.185c3.459 7.386 1.528 13.335 1.061 16.345-0.594 2.614-0.396 1.373-0.528 3.464z" fill="#17479d"/>
		<polygon points="100.83 50.261 101.03 50.849 101.63 50.849 101.1 51.176 101.3 51.763 100.83 51.437 100.3 51.763 100.5 51.176 99.966 50.849 100.63 50.849" fill="#fff"/>
		<path d="m100.43 58.303c4.058 0 7.382 3.268 7.382 7.258 0 3.986-3.324 7.192-7.382 7.192-4.059 0-7.315-3.206-7.315-7.192 0-3.99 3.256-7.258 7.315-7.258z" fill="#fff"/>
		<path d="m93.109 65.561c0 3.97 3.285 7.198 7.322 7.198 4.075 0 7.389-3.228 7.389-7.198 0-4.005-3.314-7.264-7.389-7.264-4.037-1e-3 -7.322 3.259-7.322 7.264zm0.014 0c0-3.998 3.278-7.25 7.308-7.25 4.067 0 7.375 3.253 7.375 7.25 0 3.962-3.308 7.185-7.375 7.185-4.03-1e-3 -7.308-3.223-7.308-7.185z" fill="#231f20"/>
		<path d="m100.36 58.762c3.857 0 6.915 3.006 6.915 6.798 0 3.79-3.059 6.8-6.915 6.8-3.793 0-6.915-3.009-6.915-6.8 0-3.792 3.122-6.798 6.915-6.798z" fill="#8dd7f7"/><g fill="#0094d9">
		<path d="m93.255 65.561c0 3.858 3.189 6.994 7.11 6.994 3.987 0 7.111-3.071 7.111-6.994 0-3.922-3.124-6.994-7.111-6.994-3.921 0-7.11 3.137-7.11 6.994zm0.389 0c0-3.641 3.015-6.604 6.721-6.604 3.769 0 6.721 2.901 6.721 6.604 0 3.704-2.952 6.604-6.721 6.604-3.706 0-6.721-2.962-6.721-6.604z"/>
		<path d="m98.407 71.866c-0.092 0.054-0.124 0.174-0.07 0.267s0.174 0.123 0.267 0.069c1.732-1.013 2.008-0.877 3.802 7e-3 0.097 0.047 0.213 7e-3 0.261-0.089s8e-3 -0.213-0.088-0.261c-1.9-0.936-2.317-1.078-4.172 7e-3z"/>
		<path d="m93.45 65.366c-0.108 0-0.195 0.087-0.195 0.194 0 0.108 0.087 0.196 0.195 0.196h13.898c0.108 0 0.195-0.087 0.195-0.196 0-0.107-0.087-0.194-0.195-0.194z"/>
		<path d="m102.52 58.989c-1.56 1.021-2.404 1.175-4.036 5e-3 -0.088-0.063-0.209-0.043-0.272 0.044s-0.043 0.209 0.044 0.272c1.832 1.313 2.861 1.062 4.477 4e-3 0.09-0.058 0.115-0.179 0.055-0.27-0.057-0.088-0.178-0.113-0.268-0.055z"/>
		<path d="m96.279 59.895c-0.059 0.09-0.033 0.211 0.057 0.269 2.859 1.856 5.129 2.46 8.271 0.057 0.086-0.066 0.102-0.188 0.037-0.273-0.066-0.085-0.188-0.101-0.273-0.036-2.975 2.275-5.045 1.729-7.824-0.074-0.088-0.059-0.21-0.033-0.268 0.057z"/>
		<path d="m94.954 61.001c-0.062 0.088-0.041 0.21 0.047 0.272 4.972 3.501 7.804 1.858 10.08 0.539l0.699-0.398c0.093-0.052 0.129-0.173 0.076-0.267-0.053-0.093-0.169-0.127-0.263-0.075l-0.707 0.403c-2.293 1.33-4.892 2.838-9.661-0.521-0.089-0.062-0.209-0.042-0.271 0.047z"/>
		<path d="m94.13 68.045c-0.093 0.053-0.126 0.172-0.073 0.266s0.172 0.126 0.266 0.073c1.028-0.584 6.463-3.333 12.396-0.04 0.094 0.053 0.213 0.019 0.266-0.076 0.051-0.094 0.018-0.213-0.077-0.265-6.116-3.394-11.717-0.561-12.778 0.042z"/>
		<path d="m95.031 69.829c-0.098 0.045-0.141 0.161-0.096 0.258 0.045 0.098 0.16 0.142 0.258 0.097 5.246-2.392 5.612-2.233 10.087-0.273l0.326 0.143c0.099 0.043 0.215-2e-3 0.257-0.101 0.043-0.098-2e-3 -0.214-0.101-0.256l-0.326-0.143c-4.527-1.982-5-2.189-10.405 0.275z"/>
		<path d="m102.33 59.455c1.843 1.035 3.809 3.628 3.821 6.396 0.01 2.333-1.381 4.366-4.024 5.881l0.194 0.338c3.502-2.007 4.228-4.49 4.22-6.221-0.012-2.916-2.081-5.646-4.021-6.735z"/>
		<path d="m101.69 59.752c1.652 1.562 2.567 3.604 2.576 5.748 0.011 2.215-0.927 4.347-2.642 6.001l0.271 0.28c1.791-1.728 2.772-3.959 2.761-6.283-0.011-2.252-0.968-4.392-2.697-6.029z"/>
		<path d="m101.2 59.917c2.349 3.498 1.855 9.096-0.119 11.399l0.296 0.254c2.105-2.456 2.627-8.176 0.146-11.871z"/>
		<path d="m99.67 71.552 0.324-0.218c-1.106-1.647-3.344-6.06-0.259-11.429l-0.338-0.194c-3.195 5.557-0.873 10.132 0.273 11.841z"/>
		<path d="m99.092 71.775 0.282-0.268c-3.55-3.739-3.597-8.027-0.13-11.764l-0.286-0.265c-3.625 3.907-3.576 8.389 0.134 12.297z"/>
		<path d="m94.535 65.604c-0.081 1.796 0.558 4.375 4.068 6.464l0.199-0.335c-2.646-1.575-3.988-3.689-3.878-6.111 0.131-2.896 2.289-5.439 3.796-6.161l-0.169-0.352c-1.829 0.876-3.886 3.609-4.016 6.495z"/>
		</g><path d="m100.43 69.482v1.831z" fill="#e6e7e8"/>
		<rect x="100.27" y="69.482" width=".322" height="1.831" fill="#0094d9"/>
		<path d="m100.24 64.907v5.817c0 0.108 0.088 0.195 0.195 0.195 0.108 0 0.196-0.087 0.196-0.195v-5.817c0-0.107-0.088-0.195-0.196-0.195-0.107 0-0.195 0.088-0.195 0.195z" fill="#0094d9"/>
		<path d="m107.48 67.914c6.116 3.464 4.921 5.294-7.782-2.354-5.853-3.53-15.692-10.067-4.788-4.708l0.2-0.262c-12.306-5.623-1.131 1.831 4.254 5.164 13.767 8.561 15.031 5.624 8.247 1.766z" fill="#fff"/>
		<path d="m106.02 60.853c7.183-4.119 7.58-1.766-5.517 5.294-5.988 3.204-17.028 8.563-6.917 1.9l-0.134-0.329c-11.04 7.712 1.463 1.7 7.115-1.242 14.366-7.52 12.836-10.331 5.187-5.952z" fill="#fff"/>
		<g fill="#231f20">
			<polygon points="97.84 68.437 99.766 68.437 99.832 68.501 99.766 68.569 99.832 68.631 100.96 68.631 101.03 68.569 100.96 68.437 104.36 68.437 106.42 68.437 106.48 68.371 106.42 68.305 104.36 64.446 102.76 64.446 96.975 64.446 96.442 64.446 94.38 68.371 94.38 68.437"/>
			<path d="m102.76 64.387h-6.316l-0.053 0.032-2.062 3.925-8e-3 0.094 0.061 0.061h5.386l-0.042 0.114 0.066 0.063 1.17 0.017 0.109-0.078 0.014-0.073s-0.014-0.024-0.023-0.043h5.358l0.108-0.084v-0.085l-0.065-0.066-2.053-3.845-0.053-0.031h-1.597zm-5.783 0.12h7.344c0.034 0.062 2.046 3.827 2.046 3.827s0.018 0.018 0.035 0.036c-0.011 0.012-0.024 0.026-0.024 0.026l-2.02-0.019h-3.395l-0.053 0.088s0.027 0.052 0.047 0.091c-0.018 0.015-0.035 0.03-0.035 0.03l-1.088-0.015 0.042-0.113-0.066-0.065-1.968-0.017h-3.4v-6e-3s2.005-3.801 2.038-3.865c0.063 2e-3 0.497 2e-3 0.497 2e-3z"/>
			<polygon points="99.766 68.569 99.832 68.569 99.766 68.631 99.7 68.631 99.7 68.631 99.7 68.697 99.766 68.697 99.832 68.764 100.96 68.764 100.96 68.764 101.03 68.697 101.1 68.697 101.1 68.697 101.1 68.631 101.03 68.631 101.03 68.569 101.03 68.569 106.42 68.569 106.42 68.501 106.48 68.501 106.48 68.501 106.48 68.437 106.48 68.371 106.42 68.437 100.96 68.437 100.9 68.437 100.9 68.501 100.9 68.501 100.9 68.569 100.9 68.569 100.9 68.569 99.966 68.569 99.966 68.569 99.898 68.569 99.966 68.501 99.966 68.501 99.966 68.437 99.898 68.437 99.898 68.437 94.513 68.437 94.444 68.437 94.444 68.437 94.38 68.371 94.38 68.501 94.444 68.569"/>
			<path d="m106.38 68.395-5.475-0.019-0.06 0.061v0.072h-0.826c5e-3 -0.031 0.012-0.072 0.012-0.072l-0.06-0.061h-5.526v-6e-3s-0.01 4e-3 -0.013 5e-3c-0.025 0-0.108-5e-3 -0.108-5e-3v0.13l0.081 0.11s5.013 0.018 5.245 0.019c0 1e-3 -6e-3 3e-3 -6e-3 3e-3v0.066l0.061 0.06h0.066l0.066 0.066h1.128l0.111-0.083 0.087-0.043v-0.066l-2e-3 -2e-3h5.262l0.06-0.06v-8e-3h5e-3l0.06-0.06v-0.13l-0.104-0.042zm-11.931 0.091c0.032 5e-3 0.07 0.012 0.07 0.012h5.392v3e-3l-0.049 0.025 0.042 0.102h1.002l0.061-0.06v-0.071h5.402c-1e-3 0-5e-3 3e-3 -5e-3 3e-3v8e-3h-5.327l-0.061 0.06v0.062s0.014 0.015 0.03 0.029c-0.032 0.025-0.08 0.061-0.08 0.061l-1.087-0.017s-0.017-0.018-0.035-0.035c0.031-0.023 0.076-0.057 0.076-0.057l-0.041-0.103h-5.387c-3e-3 1e-3 -3e-3 -0.015-3e-3 -0.022z"/>
			</g><polygon points="96.442 68.109 97.44 67.979 98.371 67.784 98.901 67.718 99.233 67.784 99.633 67.914 99.832 68.109 99.966 68.371 100.03 68.501 100.83 68.501 100.83 68.501 100.9 68.174 101.03 67.914 101.3 67.718 101.63 67.651 102.03 67.651 102.56 67.718 103.16 67.914 104.22 68.109 105.22 68.174 105.95 68.174 104.16 64.514 103.76 64.251 100.5 66.212 97.039 64.251 96.64 64.446 94.845 68.174 95.709 68.174" fill="#fff"/><g fill="#231f20">
			<path d="m96.614 64.393-1.823 3.755 0.054 0.086h0.864l0.738-0.063 1.001-0.132 0.935-0.196 0.526-0.065 0.313 0.065 0.392 0.129 0.177 0.181 0.122 0.246 0.068 0.129 0.053 0.033h0.799l0.059-0.048 0.068-0.327 0.125-0.244 0.247-0.176 0.308-0.056 0.391 1e-3 0.523 0.066 0.586 0.194 1.072 0.198 1.003 0.064h0.737l0.055-0.086-1.798-3.659-0.418-0.286-0.064-2e-3s-3.168 1.907-3.227 1.943c-0.059-0.034-3.431-1.944-3.431-1.944l-0.056-1e-3zm0.081 0.08s0.291-0.132 0.341-0.155c0.052 0.03 3.435 1.945 3.435 1.945l0.061-1e-3s3.16-1.902 3.224-1.94c0.053 0.036 0.365 0.241 0.365 0.241s1.654 3.385 1.734 3.55h-0.637l-0.993-0.064-1.057-0.194-0.589-0.195-0.542-0.069-0.411-1e-3 -0.343 0.068-0.29 0.208-0.148 0.28s-0.049 0.223-0.063 0.294h-0.713c-0.019-0.036-0.184-0.358-0.184-0.358l-0.21-0.211-0.424-0.145-0.338-0.067-0.55 0.066-0.935 0.195-0.995 0.13-0.73 0.064h-0.763c0.08-0.165 1.755-3.641 1.755-3.641z"/>
			<rect x="100.3" y="64.251" width=".121" height="3.795"/>
			<polygon points="94.814 68.122 94.876 68.225 95.539 67.835 95.477 67.732"/>
			<polygon points="105.32 67.9 105.92 68.226 105.98 68.121 105.38 67.795"/>
			<polygon points="97.572 67.521 98.303 67.324 98.767 67.258 99.101 67.258 99.433 67.324 99.766 67.457 100.03 67.586 100.17 67.718 100.3 67.914 100.43 68.109 100.5 67.914 100.7 67.651 100.9 67.457 101.23 67.324 101.56 67.258 101.89 67.258 102.23 67.258 102.89 67.39 103.89 67.651 104.76 67.784 105.29 67.848 105.42 67.914 103.82 64.315 103.36 64.251 102.89 64.251 102.43 64.12 102.16 64.055 101.83 63.925 101.56 63.861 101.3 63.861 101.03 63.861 100.83 63.861 100.7 63.925 100.63 64.055 100.5 64.12 100.43 64.251 100.43 64.251 100.36 64.187 100.3 64.055 100.17 63.992 100.1 63.925 99.898 63.861 99.7 63.793 99.301 63.793 98.968 63.925 98.636 63.992 98.371 64.055 98.102 64.12 97.772 64.187 97.372 64.251 97.103 64.251 96.975 64.251 95.444 67.848 95.975 67.784 96.772 67.651"/>
			<path d="m98.946 63.869-0.322 0.065-0.267 0.063-0.269 0.066-0.328 0.066-0.398 0.065-0.387-1e-3 -0.055 0.036-1.531 3.596 0.062 0.084 0.532-0.065 0.8-0.133 0.798-0.13 0.737-0.199 0.457-0.064 0.325 1e-3 0.32 0.065 0.323 0.129 0.262 0.128 0.118 0.121 0.125 0.187 0.133 0.196 0.106-0.014 0.07-0.195 0.189-0.248 0.195-0.186 0.311-0.121 0.322-0.063 0.651 1e-3 0.655 0.131 0.993 0.26 0.872 0.134 0.535 0.065 0.111 0.06 0.083-0.078-1.594-3.6-0.047-0.035-0.466-0.063h-0.474l-0.449-0.129-0.267-0.066-0.327-0.128-0.272-0.067-0.282-1e-3h-0.464l-0.158 0.07-0.097 0.157-0.103 0.04s-0.027 0.045-0.054 0.088c-3e-3 -4e-3 -0.013-0.012-0.013-0.012l-0.055-0.116-0.159-0.089-0.051-0.056-0.225-0.079-0.197-0.067-0.418-4e-3zm-1.843 0.443h0.27l0.409-0.066 0.332-0.066 0.271-0.067 0.265-0.062 0.331-0.068 0.343-0.134 0.378 4e-3 0.178 0.065 0.201 0.064 0.045 0.053 0.149 0.074 0.039 0.104 0.079 0.082 0.094-0.015 0.07-0.132 0.102-0.04 0.095-0.155 0.105-0.037 0.173 6e-3h0.533l0.251 0.062 0.326 0.128 0.273 0.068 0.463 0.131 0.483 2e-3s0.368 0.05 0.425 0.057c0.026 0.058 1.397 3.155 1.515 3.423-0.031-4e-3 -0.537-0.068-0.537-0.068l-0.864-0.133-0.991-0.26-0.67-0.132-0.675-2e-3 -0.344 0.068-0.341 0.135-0.22 0.207-0.204 0.27s-0.019 0.051-0.038 0.101c-0.034-0.049-0.067-0.099-0.067-0.099l-0.132-0.196-0.141-0.142-0.283-0.139-0.338-0.135-0.343-0.068-0.346-2e-3 -0.473 0.067-0.737 0.198-0.793 0.129-0.798 0.133s-0.291 0.035-0.425 0.051c0.076-0.179 1.445-3.395 1.475-3.464h0.087z"/>
			</g><polygon points="97.572 67.457 98.303 67.258 98.836 67.192 99.101 67.192 99.501 67.258 99.766 67.39 100.03 67.521 100.17 67.651 100.3 67.784 100.43 68.047 100.5 67.848 100.7 67.586 100.9 67.39 101.16 67.258 101.56 67.192 101.89 67.192 102.16 67.192 102.83 67.324 103.89 67.586 104.69 67.718 105.22 67.784 105.35 67.848 103.82 64.251 103.29 64.251 102.83 64.187 102.43 64.055 102.16 63.992 101.83 63.861 101.56 63.861 101.3 63.793 101.03 63.793 100.83 63.861 100.7 63.925 100.63 63.992 100.5 64.12 100.43 64.187 100.43 64.251 100.36 64.12 100.3 63.992 100.23 63.925 100.1 63.861 99.898 63.793 99.766 63.793 99.301 63.793 98.968 63.861 98.636 63.992 98.371 64.055 98.171 64.12 97.84 64.12 97.372 64.187 97.103 64.251 97.039 64.251 95.444 67.784 96.043 67.718 96.841 67.586" fill="#d0d2d3"/>
			<path d="m100.81 63.804-0.139 0.066-0.085 0.079s-0.145 0.144-0.162 0.159c-2e-3 -3e-3 -0.075-0.144-0.075-0.144l-0.077-0.082-0.15-0.076-0.207-0.071-0.151-3e-3h-0.465l-0.345 0.069-0.343 0.135-0.257 0.059-0.205 0.067-0.312-3e-3 -0.476 0.066-0.275 0.066-0.104 0.034-1.595 3.533 0.062 0.084 0.598-0.066 0.801-0.132 0.732-0.129 0.736-0.199 0.525-0.065 0.257 1e-3 0.39 0.065 0.248 0.126 0.267 0.131 0.249 0.252 0.123 0.247 0.111-8e-3 0.069-0.199 0.189-0.245 0.195-0.189 0.248-0.121 0.383-0.06 0.589 1e-3 0.654 0.131 1.059 0.261 0.802 0.133 0.534 0.066 0.113 0.059 0.081-0.078-1.525-3.596-0.055-0.036h-0.534l-0.455-0.065-0.39-0.129-0.271-0.064-0.325-0.128-0.287-5e-3 -0.253-0.066-0.28-2e-3zm-0.32 0.447v-0.065l0.05-0.023 0.198-0.196 0.116-0.052 0.193-0.066 0.246 4e-3 0.253 0.066 0.279 2e-3 0.312 0.127 0.273 0.065 0.395 0.131 0.474 0.068s0.434 1e-3 0.503 1e-3c0.028 0.068 1.339 3.156 1.449 3.416-0.02-3e-3 -0.541-0.071-0.541-0.071l-0.795-0.131-1.057-0.261-0.668-0.132-0.611-1e-3 -0.411 0.066-0.279 0.137-0.217 0.206-0.204 0.269s-0.016 0.044-0.031 0.084c-0.035-0.069-0.071-0.14-0.071-0.14l-0.142-0.148-0.135-0.13-0.282-0.142-0.265-0.131-0.417-0.072h-0.275l-0.54 0.066-0.739 0.2-0.726 0.127-0.797 0.132s-0.349 0.039-0.491 0.054c0.081-0.179 1.505-3.333 1.535-3.4h0.025l0.284-0.067 0.461-0.064h0.323l0.218-0.068 0.26-0.061 0.341-0.135 0.322-0.065 0.585 1e-3 0.181 0.065 0.126 0.061 0.05 0.056 0.056 0.113 0.066 0.131z" fill="#231f20"/>
			<rect x="100.3" y="64.251" width=".121" height="3.795" fill="#231f20"/>
		
		<path d="m111.8 54.445v-0.197c0.067 0 0.134 0 0.134-0.066 0.066 0 0.066-0.064 0.066-0.064h0.334c0 0.064 0 0.13-0.132 0.196-0.071 0.131-0.203 0.131-0.402 0.131zm0-0.457v-0.197h0.199v-0.128c-0.066-0.07-0.132-0.132-0.199-0.132v-0.197c0.199 0 0.331 0.068 0.467 0.197 0.066 0.062 0.132 0.261 0.132 0.458h-0.599zm1.461-0.325h-0.131c-0.065 0-0.135 0-0.2 0.062-0.065 0.066-0.065 0.133-0.065 0.196v0.524h-0.335v-1.044h0.335v0.192c0.065-0.129 0.199-0.259 0.333-0.259 0 0 0.063 0 0.063 0.068zm1.133 0.455c0 0.196-0.199 0.327-0.531 0.327-0.334 0-0.534-0.131-0.534-0.327h0.333c0 0.064 0.066 0.13 0.201 0.13 0.13 0 0.196-0.066 0.196-0.13l-0.066-0.065c-0.066 0-0.066 0-0.197-0.065-0.2 0-0.266-0.068-0.331-0.068-0.068-0.063-0.135-0.129-0.135-0.258 0-0.07 0.067-0.132 0.135-0.199 0.065-0.062 0.198-0.13 0.399-0.13 0.13 0 0.264 0.068 0.398 0.13 0.065 0.067 0.065 0.129 0.065 0.199h-0.333c0-0.07-0.066-0.07-0.13-0.07-0.134 0-0.201 0-0.201 0.07 0 0.062 0.133 0.128 0.33 0.128 0.134 0 0.202 0.066 0.268 0.066 0.064 0.065 0.133 0.132 0.133 0.262zm0.464-0.85h-0.33v-0.26h0.33zm0 1.177h-0.33v-1.044h0.33zm0.869 0h-0.27c-0.067 0-0.196 0-0.196-0.067-0.07 0-0.07-0.13-0.07-0.196v-0.59h-0.196v-0.192h0.196v-0.328h0.334v0.328h0.202v0.192h-0.202v0.525 0.064h0.064 0.138zm1.126-1.044-0.397 1.108c-0.066 0.134-0.133 0.197-0.133 0.197-0.067 0.066-0.135 0.066-0.266 0.066h-0.2v-0.198h0.135c0.065 0 0.133-0.065 0.133-0.196l-0.398-0.977h0.398l0.198 0.652 0.198-0.652zm-5.053-0.067v0.197c-0.134 0-0.199 0.132-0.199 0.261h0.199v0.197h-0.199c0 0.194 0.065 0.26 0.199 0.26v0.197c-0.399 0-0.6-0.197-0.6-0.524 0-0.196 0.067-0.328 0.133-0.39 0.134-0.131 0.268-0.198 0.467-0.198zm-6.784 1.111v-0.197c0.068 0 0.13 0 0.13-0.066 0.068 0 0.068-0.064 0.068-0.129v-0.133h-0.13s0 0.068-0.068 0.068v-0.197h0.068c0.062 0 0.13 0 0.13-0.066v-0.062c0-0.07-0.068-0.132-0.13-0.132h-0.068v-0.197h0.068c0.13 0 0.262 0.068 0.395 0.13 0.069 0 0.069 0.129 0.069 0.261v0.523c0 0.066 0 0.066 0.065 0.066v0 0.131h-0.134-0.195s-0.07-0.067-0.07-0.131c1e-3 0.064-0.13 0.131-0.198 0.131zm1.131 0h-0.4v-1.438h0.4zm1.994-0.524c0 0.198-0.062 0.328-0.132 0.394-0.133 0.131-0.267 0.131-0.53 0.131-0.202 0-0.338 0-0.467-0.131-0.066-0.066-0.132-0.196-0.132-0.394v-0.848h0.331v0.915c0 0.13 0.133 0.194 0.267 0.194 0.198 0 0.264-0.064 0.264-0.194v-0.915h0.399zm1.265 0.524h-0.333v-0.654c0-0.128-0.065-0.198-0.201-0.198-0.066 0-0.132 0-0.132 0.07-0.067 0.062-0.067 0.062-0.067 0.128v0.654h-0.332v-1.044h0.332v0.129c0.067-0.129 0.2-0.197 0.336-0.197 0.13 0 0.197 0.068 0.266 0.13 0.066 0 0.132 0.129 0.132 0.199v0.783zm0.532-1.177h-0.333v-0.26h0.333zm0 1.177h-0.333v-1.044h0.333zm1.262-1.044-0.399 1.044h-0.397l-0.399-1.044h0.399l0.2 0.717 0.197-0.717zm-6.184-0.067v0.197c-0.132 0.062-0.2 0.062-0.2 0.194h-0.264c0-0.132 0-0.194 0.129-0.261 0.07-0.063 0.204-0.13 0.335-0.13zm0 0.457v0.197h-0.068c-0.063 0-0.132 0.065-0.132 0.13 0 0.064 0.068 0.13 0.132 0.13h0.068v0.197h-0.132c-0.265 0-0.399-0.067-0.399-0.327 0-0.198 0.134-0.261 0.33-0.327h0.201zm-2.46 0.654v-0.197c0.134 0 0.198-0.13 0.198-0.328 0-0.258-0.064-0.328-0.198-0.328v-0.259c0.398 0 0.598 0.197 0.598 0.587 0 0.328-0.199 0.525-0.598 0.525zm1.795 0h-0.333v-0.654c0-0.128-0.066-0.198-0.198-0.198-0.067 0-0.135 0-0.135 0.07-0.062 0.062-0.062 0.062-0.062 0.128v0.654h-0.336v-1.044h0.336v0.129c0.062-0.129 0.198-0.197 0.33-0.197 0.134 0 0.199 0.068 0.265 0.13 0.068 0 0.133 0.129 0.133 0.199zm-1.795-1.111v0.259c-0.201 0-0.265 0.07-0.265 0.328 0 0.198 0.064 0.328 0.265 0.328v0.197c-0.399 0-0.6-0.197-0.6-0.524 1e-3 -0.391 0.202-0.588 0.6-0.588zm-2.594 1.111v-0.197c0.067 0 0.067 0 0.133-0.066 0.068 0 0.068-0.064 0.068-0.129v-0.133h-0.134l-0.067 0.068v-0.197h0.067c0.066 0 0.066 0 0.134-0.066v-0.062c0-0.07-0.068-0.132-0.201-0.132v-0.197c0.201 0 0.332 0.068 0.4 0.13 0.066 0 0.136 0.129 0.136 0.261v0.523 0.066c0.063 0 0.063 0.064 0.063 0v0.131h-0.133-0.2c-0.065 0-0.065-0.067-0.065-0.131-0.068 0.064-0.134 0.131-0.201 0.131zm1.329 0h-0.198c-0.137 0-0.198 0-0.266-0.067 0 0-0.067-0.13-0.067-0.196v-0.59h-0.134v-0.192h0.134v-0.328h0.333v0.328h0.198v0.192h-0.198v0.525c0 0.064 0 0.064 0.065 0.064h0.068 0.065zm0.533-1.177h-0.332v-0.26h0.332zm0 1.177h-0.332v-1.044h0.332zm-1.862-1.111v0.197c-0.134 0.062-0.199 0.062-0.199 0.194h-0.333c0-0.132 0.068-0.194 0.133-0.261 0.066-0.063 0.199-0.13 0.399-0.13zm0 0.457v0.197h-0.068c-0.132 0-0.132 0.065-0.132 0.13 0 0.064 0 0.13 0.132 0.13h0.068v0.197h-0.199c-0.265 0-0.4-0.067-0.4-0.327 0-0.198 0.134-0.261 0.4-0.327h0.199zm-3.326 0.654v-0.197c0.068 0 0.133 0 0.133-0.066 0.068 0 0.068-0.064 0.068-0.064h0.331c0 0.064-0.069 0.13-0.133 0.196-0.064 0.131-0.198 0.131-0.399 0.131zm0-0.457v-0.197h0.201v-0.128c-0.068-0.07-0.133-0.132-0.201-0.132v-0.197c0.201 0 0.335 0.068 0.399 0.197 0.133 0.062 0.133 0.261 0.133 0.458h-0.532zm1.462-0.325h-0.133c-0.066 0-0.197 0-0.197 0.062-0.069 0.066-0.069 0.133-0.069 0.196v0.524h-0.399v-1.044h0.399v0.192c0.069-0.129 0.137-0.259 0.266-0.259 0.07 0 0.07 0 0.133 0.068zm1.131 0.782h-0.332v-0.654c0-0.128-0.066-0.198-0.134-0.198-0.065 0-0.131 0-0.131 0.07-0.068 0.062-0.068 0.062-0.068 0.128v0.654h-0.332v-1.044h0.332v0.129c0-0.129 0.134-0.197 0.333-0.197 0.067 0 0.2 0.068 0.268 0.13 0.064 0 0.064 0.129 0.064 0.199zm-2.593-1.111v0.197c-0.132 0-0.198 0.132-0.267 0.261h0.267v0.197h-0.267c0 0.194 0.135 0.26 0.267 0.26v0.197c-0.397 0-0.597-0.197-0.597-0.524 0-0.196 0.067-0.328 0.132-0.39 0.133-0.131 0.267-0.198 0.465-0.198zm-5.585 1.111v-0.263c0.199 0 0.266-0.064 0.266-0.262 0-0.196-0.068-0.328-0.266-0.328v-0.192c0.133 0 0.199 0.062 0.266 0.129v-0.523h0.332v1.438h-0.332v-0.131c-0.067 0.065-0.133 0.132-0.266 0.132zm1.134-1.177h-0.334v-0.26h0.334zm0 1.177h-0.334v-1.044h0.334zm0.53 0h-0.333v-1.438h0.333zm1.128 0h-0.329v-1.372h0.329zm1.266 0h-0.333v-0.654c0-0.128 0-0.198-0.134-0.198-0.067 0-0.132 0-0.132 0.07-0.069 0.062-0.069 0.062-0.069 0.128v0.654h-0.331v-1.044h0.331v0.129c0.069-0.129 0.134-0.197 0.335-0.197 0.133 0 0.198 0.068 0.266 0.13 0.067 0 0.067 0.129 0.067 0.199zm0.862 0h-0.266c-0.065 0-0.131 0-0.201-0.067-0.064 0-0.064-0.13-0.064-0.196v-0.59h-0.2v-0.192h0.2v-0.328h0.329v0.328h0.202v0.192h-0.202v0.525 0.064h0.07 0.132zm-4.92-1.044v0.192c-0.133 0-0.198 0.132-0.198 0.328 0 0.198 0.065 0.262 0.198 0.262v0.263h-0.069c-0.198 0-0.262-0.067-0.395-0.131-0.067-0.132-0.067-0.261-0.067-0.394 0-0.196 0-0.328 0.067-0.39 0.133-0.129 0.197-0.197 0.395-0.197 0 0 0.069 0 0.069 0.067zm-1.263 1.044v-0.197c0.132 0 0.264-0.13 0.264-0.328 0-0.258-0.132-0.328-0.264-0.328v-0.259c0.401 0 0.597 0.197 0.597 0.587 0 0.328-0.196 0.525-0.597 0.525zm0-1.111v0.259c-0.134 0-0.199 0.07-0.199 0.328 0 0.198 0.066 0.328 0.199 0.328v0.197c-0.397 0-0.598-0.197-0.598-0.524 0-0.391 0.201-0.588 0.598-0.588zm-2.727 1.111v-0.197s0.067 0 0.133-0.066c0 0 0.069-0.064 0.069-0.129v-0.133h-0.135l-0.067 0.068v-0.197h0.067c0.066 0 0.066 0 0.066-0.066 0.069 0 0.069 0 0.069-0.062 0-0.07-0.069-0.132-0.202-0.132v-0.197c0.202 0 0.33 0.068 0.399 0.13 0.069 0 0.134 0.129 0.134 0.261v0.523 0.066s0.068 0.064 0.068 0v0.131h-0.133-0.201c-0.065 0-0.065-0.067-0.065-0.131-0.07 0.064-0.136 0.131-0.202 0.131zm1.329-1.243h-0.064c-0.068 0-0.068 0-0.068 0.066-0.068 0-0.068 0-0.068 0.066v0.068h0.2v0.192h-0.2v0.852h-0.33v-0.852h-0.133v-0.192h0.133v-0.134c0-0.194 0.132-0.26 0.33-0.26h0.2zm0.8 0h-0.066-0.068c-0.065 0-0.065 0-0.065 0.066-0.066 0-0.066 0-0.066 0.066v0.068h0.2v0.192h-0.2v0.852h-0.334v-0.852h-0.135v-0.192h0.135v-0.134c0-0.194 0.133-0.26 0.334-0.26h0.266v0.194zm-2.791 0.523c0 0.196-0.068 0.393-0.135 0.523-0.135 0.13-0.266 0.197-0.466 0.197h-0.069v-0.263c0.069 0 0.134-0.064 0.201-0.129 0.068-0.065 0.068-0.195 0.068-0.328 0-0.132 0-0.261-0.068-0.324-0.067-0.068-0.132-0.134-0.201-0.134v-0.194h0.069c0.2 0 0.33 0 0.466 0.129 0.068 0.132 0.135 0.329 0.135 0.523zm0.662-0.391v0.197c-0.135 0.062-0.201 0.062-0.201 0.194h-0.33c0-0.132 0.064-0.194 0.131-0.261 0.067-0.063 0.199-0.13 0.4-0.13zm0 0.457v0.197h-0.065c-0.136 0-0.136 0.065-0.136 0.13 0 0.064 0 0.13 0.136 0.13h0.065v0.197h-0.201c-0.266 0-0.397-0.067-0.397-0.327 0-0.198 0.131-0.261 0.397-0.327h0.201zm-1.331 0.654h-0.662v-1.372h0.662v0.194h-0.333v0.915h0.333z" fill="#fff"/><g fill="#e6e7e8">
		<path d="m92.517 72.619 1.596 0.72c0.532 0.262 0.933 0.521 1.195 0.782 0.27 0.327 0.465 0.654 0.535 1.044 0.132 0.328 0.132 0.72 0.067 1.114-0.067 0.456-0.202 0.846-0.403 1.242-0.264 0.65-0.595 1.109-0.863 1.368-0.332 0.328-0.663 0.524-1.062 0.653-0.332 0.068-0.666 0.13-1.066 0.068v-1.636c0.202-0.063 0.335-0.132 0.533-0.261 0.134-0.193 0.332-0.524 0.598-0.979 0.266-0.653 0.334-1.111 0.266-1.436-0.133-0.327-0.396-0.589-0.864-0.785l-0.467-0.261-0.066 0.13v-1.763zm-1.195-0.519 1.196 0.519v1.763l-1.462 3.139 0.468 0.193c0.397 0.198 0.666 0.261 0.928 0.261h0.066v1.636c-0.465-0.068-0.864-0.198-1.128-0.328l-2.795-1.241z"/>
		<rect x="99.433" y="76.017" width="2.063" height="6.533"/>
		<path d="m108.08 72.817 1.859-0.85 1.663 3.526c0.199 0.392 0.266 0.721 0.333 1.111 0 0.325 0 0.718-0.134 1.044-0.134 0.328-0.333 0.589-0.533 0.851-0.331 0.259-0.73 0.523-1.195 0.785-0.333 0.13-0.665 0.26-0.998 0.328-0.4 0.13-0.732 0.194-0.995 0.194-0.269 0-0.6-0.063-0.868-0.194-0.331-0.132-0.533-0.328-0.732-0.525-0.265-0.328-0.531-0.654-0.666-0.914l-1.662-3.526 1.863-0.85 1.728 3.591c0.133 0.328 0.337 0.526 0.6 0.656 0.266 0.064 0.6 0.064 0.933-0.067 0.265-0.198 0.531-0.394 0.599-0.653 0.132-0.261 0.064-0.523-0.067-0.851z"/>
		</g><path d="m100.23 87.127c1.197 0 2.261 0.981 2.261 2.222 0 1.243-1.064 2.225-2.261 2.225-1.263 0-2.262-0.982-2.262-2.225-1e-3 -1.241 0.998-2.222 2.262-2.222z" fill="#ec1c24"/>
	</g>
</g>
<metadata><rdf:RDF><cc:Work rdf:about=""><cc:license rdf:resource="http://creativecommons.org/licenses/by/4.0/"/><dc:title>Daffodil International University Monogram</dc:title><dc:source>https://daffodilvarsity.edu.bd/</dc:source><dc:subject><rdf:Bag><rdf:li>DIU</rdf:li></rdf:Bag></dc:subject><dc:description>Crest of Daffodil International University</dc:description></cc:Work><cc:License rdf:about="http://creativecommons.org/licenses/by/4.0/"><cc:permits rdf:resource="http://creativecommons.org/ns#Reproduction"/><cc:permits rdf:resource="http://creativecommons.org/ns#Distribution"/><cc:requires rdf:resource="http://creativecommons.org/ns#Notice"/><cc:requires rdf:resource="http://creativecommons.org/ns#Attribution"/><cc:permits rdf:resource="http://creativecommons.org/ns#DerivativeWorks"/></cc:License></rdf:RDF></metadata></svg>